<svg xmlns="http://www.w3.org/2000/svg" width="24" height="24" fill="white" viewBox="0 0 24 24" id="vero">
    <path fill="white" fill-rule="evenodd" d="M1.34402 5.63642C1.47619 5.39796 1.72736 5.25 2 5.25H5.5C5.91421 5.25 6.25 5.58579 6.25 6C6.25 6.41421 5.91421 6.75 5.5 6.75H3.35319L12 20.5849L20.6468 6.75H19.0062C18.5919 6.75 18.2562 6.41421 18.2562 6C18.2562 5.58579 18.5919 5.25 19.0062 5.25H22C22.2726 5.25 22.5238 5.39796 22.656 5.63642C22.7882 5.87489 22.7805 6.1663 22.636 6.3975L12.636 22.3975C12.4989 22.6168 12.2586 22.75 12 22.75C11.7414 22.75 11.5011 22.6168 11.364 22.3975L1.364 6.3975C1.2195 6.1663 1.21185 5.87489 1.34402 5.63642ZM8.75 6C8.75 5.58579 9.08579 5.25 9.5 5.25H16.0123C16.4265 5.25 16.7623 5.58579 16.7623 6C16.7623 6.41421 16.4265 6.75 16.0123 6.75H9.5C9.08579 6.75 8.75 6.41421 8.75 6Z" clip-rule="evenodd"></path>
    <path fill="white" fill-rule="evenodd" d="M19.4027 5.36725C19.7521 5.58964 19.8551 6.0532 19.6327 6.40266L12.6327 17.4027C12.4932 17.622 12.25 17.7534 11.9901 17.7499C11.7302 17.7465 11.4906 17.6088 11.3569 17.3859L9.85688 14.8859C9.70967 14.6405 9.71488 14.3328 9.87032 14.0926L15.3703 5.59256C15.5953 5.2448 16.0597 5.1453 16.4074 5.37032C16.7552 5.59534 16.8547 6.05968 16.6297 6.40744L11.3836 14.515L12.0188 15.5735L18.3673 5.59734C18.5896 5.24789 19.0532 5.14487 19.4027 5.36725Z" clip-rule="evenodd"></path>
</svg>